<svg width="24" height="24" viewBox="0 0 24 24" fill="none" xmlns="http://www.w3.org/2000/svg">
<g clip-path="url(#clip0_1439_1118)">
<path d="M11.2266 15.5625C12.0156 15.875 12.7344 16.2891 13.3828 16.8047C14.0312 17.3203 14.5859 17.918 15.0469 18.5977C15.5078 19.2773 15.8633 20.0078 16.1133 20.7891C16.3633 21.5703 16.4922 22.3906 16.5 23.25V24H15V23.25C15 22.3203 14.8242 21.4453 14.4727 20.625C14.1211 19.8047 13.6367 19.0898 13.0195 18.4805C12.4023 17.8711 11.6875 17.3906 10.875 17.0391C10.0625 16.6875 9.1875 16.5078 8.25 16.5C7.32031 16.5 6.44531 16.6758 5.625 17.0273C4.80469 17.3789 4.08984 17.8633 3.48047 18.4805C2.87109 19.0977 2.39062 19.8125 2.03906 20.625C1.6875 21.4375 1.50781 22.3125 1.5 23.25V24H0V23.25C0 22.3984 0.125 21.5781 0.375 20.7891C0.625 20 0.984375 19.2695 1.45312 18.5977C1.92188 17.9258 2.47656 17.332 3.11719 16.8164C3.75781 16.3008 4.47656 15.8828 5.27344 15.5625C4.92188 15.3203 4.60547 15.0391 4.32422 14.7188C4.04297 14.3984 3.80469 14.0547 3.60938 13.6875C3.41406 13.3203 3.26562 12.9297 3.16406 12.5156C3.0625 12.1016 3.00781 11.6797 3 11.25C3 10.5234 3.13672 9.84375 3.41016 9.21094C3.68359 8.57812 4.05859 8.02344 4.53516 7.54688C5.01172 7.07031 5.56641 6.69531 6.19922 6.42188C6.83203 6.14844 7.51562 6.00781 8.25 6C8.97656 6 9.65625 6.13672 10.2891 6.41016C10.9219 6.68359 11.4766 7.05859 11.9531 7.53516C12.4297 8.01172 12.8047 8.56641 13.0781 9.19922C13.3516 9.83203 13.4922 10.5156 13.5 11.25C13.5 11.6797 13.4492 12.0977 13.3477 12.5039C13.2461 12.9102 13.0938 13.3008 12.8906 13.6758C12.6875 14.0508 12.4492 14.3984 12.1758 14.7188C11.9023 15.0391 11.5859 15.3203 11.2266 15.5625ZM8.25 15C8.76562 15 9.25 14.9023 9.70312 14.707C10.1562 14.5117 10.5508 14.2461 10.8867 13.9102C11.2227 13.5742 11.4922 13.1758 11.6953 12.7148C11.8984 12.2539 12 11.7656 12 11.25C12 10.7344 11.9023 10.25 11.707 9.79688C11.5117 9.34375 11.2422 8.94922 10.8984 8.61328C10.5547 8.27734 10.1562 8.00781 9.70312 7.80469C9.25 7.60156 8.76562 7.5 8.25 7.5C7.73438 7.5 7.25 7.59766 6.79688 7.79297C6.34375 7.98828 5.94531 8.25781 5.60156 8.60156C5.25781 8.94531 4.98828 9.34375 4.79297 9.79688C4.59766 10.25 4.5 10.7344 4.5 11.25C4.5 11.7656 4.59766 12.25 4.79297 12.7031C4.98828 13.1562 5.25391 13.5547 5.58984 13.8984C5.92578 14.2422 6.32422 14.5117 6.78516 14.707C7.24609 14.9023 7.73438 15 8.25 15ZM24 0V12H21L16.5 16.5V12H15V10.5H18V12.8789L20.3789 10.5H22.5V1.5H7.5V4.19531C7.25 4.22656 7 4.26562 6.75 4.3125C6.5 4.35938 6.25 4.42969 6 4.52344V0H24Z" fill="#414141"/>
</g>
<defs>
<clipPath id="clip0_1439_1118">
<rect width="24" height="24" fill="white"/>
</clipPath>
</defs>
</svg>
