<svg width="28" height="28" viewBox="0 0 28 28" fill="none" xmlns="http://www.w3.org/2000/svg">
<path fill-rule="evenodd" clip-rule="evenodd" d="M12.2606 10.1121C10.5835 10.4481 8.75011 11.2017 8.75011 12.25V14H19.2501V12.25C19.2501 11.2017 17.4167 10.4481 15.7396 10.1121C15.1003 9.98375 14.4843 9.91667 14.0001 9.91667C13.5159 9.91667 12.8999 9.98433 12.2606 10.1121ZM18.0834 12.8333V12.3165C18.0419 12.2667 17.9949 12.2217 17.9434 12.1823C17.727 12.0073 17.3659 11.8148 16.8794 11.6352C15.9064 11.277 14.7293 11.0833 14.0001 11.0833C13.2709 11.0833 12.0938 11.277 11.1208 11.6352C10.6343 11.8142 10.2732 12.0073 10.0568 12.1823C10.0053 12.2217 9.95833 12.2667 9.91678 12.3165V12.8333H18.0834ZM12.4543 8.89117C12.9023 9.17117 13.4325 9.33333 14.0001 9.33333C14.5677 9.33333 15.0974 9.17117 15.5459 8.89117C15.9656 8.62888 16.3116 8.26413 16.5514 7.83123C16.7913 7.39834 16.917 6.91155 16.9168 6.41667C16.9168 4.8055 15.6113 3.5 14.0001 3.5C12.3889 3.5 11.0834 4.8055 11.0834 6.41667C11.0834 7.46083 11.6312 8.3755 12.4543 8.89117ZM14.0001 8.16667C14.9673 8.16667 15.7501 7.38383 15.7501 6.41667C15.7501 5.4495 14.9673 4.66667 14.0001 4.66667C13.0329 4.66667 12.2501 5.4495 12.2501 6.41667C12.2501 7.38383 13.0329 8.16667 14.0001 8.16667ZM14.5834 18.5296V19.9068C15.1321 20.0502 15.6098 20.3883 15.9273 20.8581C16.2449 21.3278 16.3806 21.8971 16.3092 22.4596C16.2378 23.0221 15.964 23.5394 15.5391 23.9149C15.1142 24.2904 14.5671 24.4983 14.0001 24.5C13.4318 24.5006 12.8828 24.2937 12.4562 23.9182C12.0296 23.5427 11.7547 23.0244 11.6831 22.4606C11.6115 21.8968 11.7481 21.3263 12.0673 20.8561C12.3865 20.3859 12.8664 20.0484 13.4168 19.9068V18.5296H6.41678V19.9068C6.9654 20.0502 7.44309 20.3883 7.76066 20.8581C8.07824 21.3278 8.21397 21.8971 8.14253 22.4596C8.07109 23.0221 7.79736 23.5394 7.37244 23.9149C6.94753 24.2904 6.40048 24.4983 5.83345 24.5C5.26513 24.5006 4.71614 24.2937 4.28952 23.9182C3.86291 23.5427 3.588 23.0244 3.5164 22.4606C3.4448 21.8968 3.58143 21.3263 3.90064 20.8561C4.21985 20.3859 4.69969 20.0484 5.25011 19.9068V18.5296C5.25011 18.2202 5.37303 17.9234 5.59182 17.7046C5.81062 17.4858 6.10736 17.3629 6.41678 17.3629H13.4168V15.1667H14.5834V17.3629H21.5834C21.8929 17.3629 22.1896 17.4858 22.4084 17.7046C22.6272 17.9234 22.7501 18.2202 22.7501 18.5296V19.9068C23.2987 20.0502 23.7764 20.3883 24.094 20.8581C24.4116 21.3278 24.5473 21.8971 24.4759 22.4596C24.4044 23.0221 24.1307 23.5394 23.7058 23.9149C23.2809 24.2904 22.7338 24.4983 22.1668 24.5C21.5985 24.5006 21.0495 24.2937 20.6229 23.9182C20.1962 23.5427 19.9213 23.0244 19.8497 22.4606C19.7781 21.8968 19.9148 21.3263 20.234 20.8561C20.5532 20.3859 21.033 20.0484 21.5834 19.9068V18.5296H14.5834ZM22.1668 21C21.8574 21 21.5606 21.1229 21.3418 21.3417C21.123 21.5605 21.0001 21.8572 21.0001 22.1667C21.0001 22.4761 21.123 22.7728 21.3418 22.9916C21.5606 23.2104 21.8574 23.3333 22.1668 23.3333C22.4762 23.3333 22.7729 23.2104 22.9917 22.9916C23.2105 22.7728 23.3334 22.4761 23.3334 22.1667C23.3334 21.8572 23.2105 21.5605 22.9917 21.3417C22.7729 21.1229 22.4762 21 22.1668 21ZM5.83345 21C5.52403 21 5.22728 21.1229 5.00849 21.3417C4.7897 21.5605 4.66678 21.8572 4.66678 22.1667C4.66678 22.4761 4.7897 22.7728 5.00849 22.9916C5.22728 23.2104 5.52403 23.3333 5.83345 23.3333C6.14287 23.3333 6.43961 23.2104 6.65841 22.9916C6.8772 22.7728 7.00011 22.4761 7.00011 22.1667C7.00011 21.8572 6.8772 21.5605 6.65841 21.3417C6.43961 21.1229 6.14287 21 5.83345 21ZM14.0001 23.3333C14.3095 23.3333 14.6063 23.2104 14.8251 22.9916C15.0439 22.7728 15.1668 22.4761 15.1668 22.1667C15.1668 21.8572 15.0439 21.5605 14.8251 21.3417C14.6063 21.1229 14.3095 21 14.0001 21C13.6907 21 13.3939 21.1229 13.1752 21.3417C12.9564 21.5605 12.8334 21.8572 12.8334 22.1667C12.8334 22.4761 12.9564 22.7728 13.1752 22.9916C13.3939 23.2104 13.6907 23.3333 14.0001 23.3333Z" fill="#21729F"/>
</svg>
