<svg width="24" height="24" viewBox="0 0 24 24" fill="none" xmlns="http://www.w3.org/2000/svg">
<path d="M15.058 21V20H18.384C18.538 20 18.6793 19.936 18.808 19.808C18.9367 19.68 19.0007 19.5387 19 19.384V10.616H5V14.5H4V6.61599C4 6.15532 4.15433 5.77099 4.463 5.46299C4.77167 5.15499 5.156 5.00066 5.616 4.99999H7.385V2.76999H8.462V4.99999H15.616V2.76999H16.616V4.99999H18.385C18.845 4.99999 19.2293 5.15432 19.538 5.46299C19.8467 5.77166 20.0007 6.15599 20 6.61599V19.385C20 19.845 19.846 20.2293 19.538 20.538C19.23 20.8467 18.8453 21.0007 18.384 21H15.058ZM8 23.288L7.311 22.6L10.367 19.5H1.5V18.5H10.367L7.311 15.4L8 14.712L12.289 19L8 23.288Z" fill="#242831"/>
</svg>
