<svg width="24" height="24" viewBox="0 0 24 24" fill="none" xmlns="http://www.w3.org/2000/svg">
<path d="M10.1459 3.248C10.2953 2.87871 10.5516 2.56246 10.8819 2.33977C11.2122 2.11709 11.6015 1.99812 11.9999 1.99812C12.3983 1.99812 12.7876 2.11709 13.1179 2.33977C13.4482 2.56246 13.7045 2.87871 13.8539 3.248C15.3329 3.65423 16.6376 4.53499 17.5673 5.75487C18.497 6.97475 19.0003 8.46622 18.9999 10V14.697L20.8319 17.445C20.9324 17.5956 20.9901 17.7707 20.9989 17.9515C21.0077 18.1323 20.9672 18.3121 20.8818 18.4718C20.7964 18.6314 20.6692 18.7648 20.5139 18.8579C20.3586 18.9509 20.181 19 19.9999 19H15.4649C15.3445 19.8331 14.928 20.5949 14.2916 21.1459C13.6552 21.6969 12.8417 22.0002 11.9999 22.0002C11.1581 22.0002 10.3446 21.6969 9.7082 21.1459C9.07184 20.5949 8.65531 19.8331 8.53491 19H3.99991C3.81886 19 3.64121 18.9509 3.4859 18.8579C3.33058 18.7648 3.20344 18.6314 3.11803 18.4718C3.03262 18.3121 2.99215 18.1323 3.00093 17.9515C3.00972 17.7707 3.06743 17.5956 3.16791 17.445L4.99991 14.697V10C4.99991 6.776 7.17991 4.06 10.1459 3.248ZM10.5859 19C10.6892 19.2926 10.8807 19.5461 11.134 19.7253C11.3874 19.9046 11.6901 20.0008 12.0004 20.0008C12.3107 20.0008 12.6134 19.9046 12.8668 19.7253C13.1201 19.5461 13.3116 19.2926 13.4149 19H10.5859ZM11.9999 5C10.6738 5 9.40205 5.52678 8.46437 6.46447C7.52669 7.40215 6.99991 8.67392 6.99991 10V15C6.99995 15.1975 6.94149 15.3907 6.83191 15.555L5.86891 17H18.1299L17.1669 15.555C17.0577 15.3905 16.9996 15.1974 16.9999 15V10C16.9999 8.67392 16.4731 7.40215 15.5354 6.46447C14.5978 5.52678 13.326 5 11.9999 5Z" fill="#31AEF3"/>
</svg>
