<svg width="24" height="24" viewBox="0 0 24 24" fill="none" xmlns="http://www.w3.org/2000/svg">
<path d="M12.4998 2.75C12.9794 2.75 13.3025 2.75068 13.5525 2.76758C13.7354 2.77994 13.8483 2.79945 13.9265 2.82227L13.9939 2.8457L13.9958 2.84668C14.1482 2.90901 14.2873 3.00019 14.4041 3.11621C14.4918 3.20341 14.5655 3.30351 14.6238 3.41211L14.6765 3.52344L14.6775 3.52637C14.7169 3.61983 14.7502 3.76784 14.7644 4.12793V4.12695C14.7762 4.52498 14.8888 4.91342 15.0906 5.25684C15.294 5.60307 15.5818 5.8923 15.9275 6.09668L15.9363 6.10156L15.9441 6.10645C16.2959 6.30213 16.692 6.40616 17.0945 6.4082C17.4937 6.41018 17.8866 6.3111 18.238 6.12207L18.239 6.12305C18.5549 5.95669 18.7046 5.90879 18.8123 5.89453L18.8113 5.89355C19.1033 5.85553 19.3985 5.92032 19.6472 6.07324L19.7507 6.14453C19.8182 6.19651 19.9027 6.28422 20.0369 6.48242C20.1763 6.68846 20.3376 6.96536 20.5779 7.37793C20.8177 7.78973 20.9789 8.06655 21.0886 8.28906C21.1938 8.50236 21.2274 8.61867 21.239 8.70117V8.70215C21.2602 8.86484 21.2495 9.03006 21.2068 9.18848C21.1641 9.34658 21.0907 9.49517 20.991 9.625C20.9422 9.68763 20.8652 9.76214 20.7009 9.87598L20.5056 10.0029C19.83 10.4231 19.3699 11.1597 19.3699 12C19.3699 12.8407 19.8306 13.5771 20.5066 13.998V13.9971C20.7355 14.1403 20.8563 14.235 20.9294 14.3076L20.989 14.374C21.0894 14.5041 21.1639 14.6529 21.2068 14.8115C21.2496 14.9699 21.26 15.1352 21.239 15.2979C21.2275 15.3808 21.1942 15.497 21.0886 15.7109C21.0337 15.8222 20.9655 15.9471 20.8816 16.0957L20.5779 16.6221V16.623C20.3384 17.0351 20.1771 17.3118 20.0378 17.5176C19.9364 17.6674 19.8629 17.7542 19.8044 17.8096L19.7498 17.8564C19.5165 18.0341 19.2288 18.1257 18.9373 18.1162L18.8123 18.1055C18.7046 18.0912 18.5549 18.0433 18.239 17.877H18.238C17.8867 17.6882 17.4934 17.5908 17.0945 17.5928C16.7427 17.5946 16.3963 17.6736 16.0798 17.8242L15.946 17.8936L15.9373 17.8984C15.2095 18.3154 14.7939 19.0761 14.7644 19.8721C14.7538 20.1419 14.7324 20.2928 14.7058 20.3906L14.6775 20.4736L14.6765 20.4766C14.6132 20.6287 14.521 20.7676 14.4041 20.8838C14.3164 20.9709 14.216 21.044 14.1072 21.1016L13.9958 21.1533L13.9939 21.1543C13.915 21.1867 13.7957 21.216 13.5525 21.2324C13.3025 21.2493 12.9794 21.25 12.4998 21.25C12.0204 21.25 11.6979 21.2493 11.448 21.2324C11.2045 21.216 11.0845 21.1867 11.0056 21.1543H11.0066C10.7348 21.0426 10.513 20.8411 10.3767 20.5879L10.323 20.4766L10.322 20.4736L10.2937 20.3906C10.276 20.3255 10.2612 20.2369 10.2498 20.1055L10.2351 19.8721C10.2065 19.1267 9.84185 18.4125 9.198 17.9814L9.06519 17.8994L9.05542 17.8936L8.92163 17.8242C8.60487 17.6733 8.25808 17.5936 7.90601 17.5918C7.55369 17.59 7.2059 17.6666 6.88745 17.8145L6.76147 17.877C6.52418 18.0019 6.38053 18.0598 6.27808 18.0869L6.18823 18.1055C5.89507 18.1434 5.60027 18.079 5.35327 17.9268L5.25073 17.8564C5.1831 17.8046 5.09856 17.717 4.96362 17.5176C4.89387 17.4145 4.81807 17.294 4.73022 17.1475L4.42261 16.6221C4.18276 16.2103 4.02164 15.9335 3.91187 15.7109C3.83169 15.5484 3.79327 15.4421 3.77417 15.3643L3.7605 15.2949C3.73986 15.1332 3.75126 14.969 3.7937 14.8115C3.83649 14.6529 3.91023 14.5042 4.0105 14.374L4.00952 14.373C4.07464 14.2899 4.19046 14.1858 4.49292 13.9961L4.4939 13.9971C5.16958 13.5769 5.62964 12.8404 5.62964 12C5.62964 11.1593 5.16986 10.4229 4.4939 10.002H4.49292C4.26425 9.85885 4.14305 9.76495 4.07007 9.69238L4.01147 9.62598L4.0105 9.625L3.93921 9.52344C3.7862 9.27944 3.72279 8.99044 3.7605 8.70508C3.77165 8.62194 3.80513 8.50535 3.91187 8.28906C3.96676 8.17784 4.03406 8.05281 4.11792 7.9043L4.42261 7.37793V7.37695C4.66212 6.96484 4.82335 6.68825 4.96265 6.48242C5.09772 6.28287 5.18279 6.19564 5.24976 6.14453C5.51764 5.94122 5.85475 5.85029 6.18823 5.89355V5.89453C6.2959 5.90885 6.44577 5.95679 6.76147 6.12305V6.12207C7.11291 6.31107 7.50591 6.40919 7.90503 6.40723C8.30727 6.40519 8.70286 6.30188 9.05444 6.10645L9.06323 6.10156L9.07104 6.09668C9.4169 5.89254 9.70524 5.60393 9.90894 5.25781C10.1126 4.91157 10.2256 4.51877 10.2361 4.11719L10.2351 4.11621C10.2459 3.85409 10.2675 3.70602 10.2937 3.60938L10.322 3.52637L10.324 3.52344C10.3873 3.37127 10.4795 3.23238 10.5964 3.11621C10.6841 3.02911 10.7844 2.95601 10.8933 2.89844L11.0046 2.84668L11.0056 2.8457C11.0854 2.81305 11.2053 2.784 11.448 2.76758C11.6978 2.75069 12.0203 2.75 12.4998 2.75ZM12.4998 8.25C10.4222 8.25017 8.72729 9.92339 8.72729 12C8.72729 14.0766 10.4222 15.7498 12.4998 15.75C14.5786 15.75 16.2732 14.0766 16.2732 12C16.2732 9.92328 14.5774 8.25 12.4998 8.25Z" stroke="#31AEF3" stroke-width="1.5"/>
</svg>
