<svg width="20" height="22" viewBox="0 0 20 22" fill="none" xmlns="http://www.w3.org/2000/svg">
<path d="M17 2.00006H13.702C13.6029 1.85282 13.4961 1.71095 13.382 1.57506L13.372 1.56306C12.637 0.707639 11.6034 0.164745 10.482 0.0450682C10.1634 -0.0150227 9.8365 -0.0150227 9.51797 0.0450682C8.39653 0.164745 7.36296 0.707639 6.62798 1.56306L6.61798 1.57506C6.50388 1.71063 6.39706 1.85216 6.29798 1.99906V2.00006H2.99999C2.20459 2.00086 1.44199 2.31718 0.879554 2.87962C0.317119 3.44205 0.000794213 4.20465 0 5.00005V19C0.000794213 19.7954 0.317119 20.558 0.879554 21.1205C1.44199 21.6829 2.20459 21.9992 2.99999 22H17C17.7954 21.9992 18.558 21.6829 19.1204 21.1205C19.6828 20.558 19.9992 19.7954 19.9999 19V5.00005C19.9992 4.20465 19.6828 3.44205 19.1204 2.87962C18.558 2.31718 17.7954 2.00086 17 2.00006ZM18 19C18 19.2652 17.8946 19.5196 17.7071 19.7071C17.5195 19.8947 17.2652 20 17 20H2.99999C2.73478 20 2.48042 19.8947 2.29289 19.7071C2.10535 19.5196 1.99999 19.2652 1.99999 19V5.00005C1.99999 4.73484 2.10535 4.48049 2.29289 4.29295C2.48042 4.10541 2.73478 4.00006 2.99999 4.00006H7.54998C7.66474 3.43491 7.97134 2.92682 8.41785 2.56187C8.86435 2.19692 9.4233 1.99756 9.99997 1.99756C10.5766 1.99756 11.1356 2.19692 11.5821 2.56187C12.0286 2.92682 12.3352 3.43491 12.45 4.00006H17C17.2652 4.00006 17.5195 4.10541 17.7071 4.29295C17.8946 4.48049 18 4.73484 18 5.00005V19Z" fill="#13361C"/>
</svg>
